<?xml version="1.0" encoding="utf-8"?>
<!-- Generator: Adobe Illustrator 26.0.3, SVG Export Plug-In . SVG Version: 6.00 Build 0)  -->
<svg version="1.1" id="Camada_1" xmlns="http://www.w3.org/2000/svg" xmlns:xlink="http://www.w3.org/1999/xlink" x="0px" y="0px"
	 viewBox="0 0 723.48 659.46" style="enable-background:new 0 0 723.48 659.46;" xml:space="preserve">
<style type="text/css">
	.st0{fill:#00B296;}
	.st1{fill:#E8621E;}
	.st2{fill:url(#SVGID_1_);}
	.st3{fill:url(#SVGID_00000041259567275410146440000016671975048724077730_);}
	.st4{fill:url(#SVGID_00000078004427081443871660000000275700244421183926_);}
	.st5{fill:url(#SVGID_00000079472693959606192890000006847568162483940487_);}
	.st6{fill:url(#SVGID_00000042016497677334440350000017899238832725626756_);}
	.st7{fill:url(#SVGID_00000132803062860606566460000005111915118551415221_);}
	.st8{fill:url(#SVGID_00000018219630007686624820000004421762688005445795_);}
	.st9{fill:url(#SVGID_00000117670485895705525940000004948079930468865714_);}
	.st10{fill:url(#SVGID_00000080915221180496794530000017340699448885282969_);}
	.st11{fill:url(#SVGID_00000117658351699212972880000008711822299998563464_);}
	.st12{fill:url(#SVGID_00000178176103831996577940000008265804315466906243_);}
	.st13{fill:url(#SVGID_00000036231604706725233970000000724378135682430910_);}
	.st14{fill:url(#SVGID_00000156572759917106845980000012548568665330559167_);}
	.st15{fill:url(#SVGID_00000056399014557327310240000009325177392013996719_);}
	.st16{fill:url(#SVGID_00000065763769716031302940000010089694162493839264_);}
	.st17{fill:url(#SVGID_00000173156709488205923780000017277344543588344248_);}
	.st18{fill:url(#SVGID_00000080893335937538460410000016551901987339290513_);}
	.st19{fill:url(#SVGID_00000001640651800175247540000016940596904892880541_);}
	.st20{fill:url(#SVGID_00000034072499218955657870000017261702355320514969_);}
	.st21{fill:url(#SVGID_00000139275057937036770140000001806075004822103454_);}
	.st22{fill:url(#SVGID_00000026883127105930538700000009546763979475068585_);}
	.st23{fill:url(#SVGID_00000029043379499875066510000014063327524450152355_);}
	.st24{fill:url(#SVGID_00000133506372084438082310000014959181445184151704_);}
	.st25{fill:url(#SVGID_00000013186467704655821890000015973976275241840825_);}
	.st26{fill:url(#SVGID_00000029038123558522440000000014862295278669076652_);}
	.st27{fill:url(#SVGID_00000037659671336416696460000010178127618995412619_);}
	.st28{fill:url(#SVGID_00000063629088161687726100000012133141727650439817_);}
	.st29{fill:url(#SVGID_00000155828096835179211420000013440187726666490814_);}
	.st30{fill:url(#SVGID_00000039100270080397983650000006844185496747416206_);}
	.st31{fill:url(#SVGID_00000090983954054558832730000014564950132268663715_);}
	.st32{fill:url(#SVGID_00000017503903171836122940000017971149189325978275_);}
	.st33{fill-rule:evenodd;clip-rule:evenodd;fill:#DB4682;}
	.st34{fill:url(#SVGID_00000146464816557980597450000006293725650267159996_);}
	.st35{fill:url(#SVGID_00000088097301919563201980000010122864625713145274_);}
	.st36{fill:url(#SVGID_00000029037172226915732640000001293443144584869265_);}
	.st37{fill:url(#SVGID_00000043438386301915259940000008891791754045277359_);}
	.st38{fill:url(#SVGID_00000084498099718636734170000015637574266459621005_);}
	.st39{fill:url(#SVGID_00000147196886987804923780000016407038511108273846_);}
	.st40{fill:url(#SVGID_00000034773128999668619430000000070154807422811829_);}
	.st41{fill:url(#SVGID_00000031201927483899260370000010561670534537068689_);}
	.st42{fill:url(#SVGID_00000098938287407144055100000007764961761447542698_);}
	.st43{fill:url(#SVGID_00000123424242048305831700000011022031011132010375_);}
	.st44{fill:url(#SVGID_00000078763462499620492050000014775176936201067418_);}
	.st45{fill:url(#SVGID_00000058567792865859659850000015674599053585622169_);}
	.st46{fill:url(#SVGID_00000121980223352705610950000010746687229683652757_);}
	.st47{fill:url(#SVGID_00000020370975922552105430000000955747443489830563_);}
	.st48{fill:url(#SVGID_00000130626843646724466900000016690998263933733763_);}
	.st49{fill:url(#SVGID_00000106133095439597854140000011703960152134252422_);}
	.st50{fill:url(#SVGID_00000158012895909500060330000007254708736366888631_);}
	.st51{fill:url(#SVGID_00000036952744641681883860000013303404636833883570_);}
	.st52{fill:url(#SVGID_00000011729366889539569720000000830671808469270921_);}
	.st53{fill:url(#SVGID_00000182511804431850400500000001859721175355695517_);}
	.st54{fill:url(#SVGID_00000087405323750399869720000008872919214410041526_);}
	.st55{fill:url(#SVGID_00000175287367877510129750000018308293600865201281_);}
	.st56{fill:url(#SVGID_00000022536000296563822290000017928265371800204185_);}
	.st57{fill:url(#SVGID_00000136382519627120734070000006550775709605442450_);}
	.st58{fill:url(#SVGID_00000015354425480287363940000012478493337247165876_);}
	.st59{fill:url(#SVGID_00000124860205419291296140000008104960770410194098_);}
	.st60{fill:url(#SVGID_00000142141236612514300470000005803486721123440527_);}
	.st61{fill:url(#SVGID_00000118390945352697993710000006553299929038012062_);}
	.st62{fill:url(#SVGID_00000073684828062588571920000018066473967569234103_);}
	.st63{fill:url(#SVGID_00000170976210894588709580000013889579217998527631_);}
	.st64{fill:url(#SVGID_00000137132971204774676960000009774904872368764311_);}
	.st65{fill:#7E44F3;}
	.st66{fill:#DB4682;}
	.st67{fill:#0047C6;}
</style>
<g>
	<path id="Path_0_00000038383566451794312380000004768282776356936068_" class="st33" d="M324.43,17.94
		c1.18,1.27,18.04,24.35,37.48,51.28c19.45,26.91,42.33,58.74,50.86,70.7c8.53,11.96,28.14,39.93,43.6,62.15
		c15.45,22.22,41.52,60.32,57.93,84.69c16.42,24.35,40.18,60.01,52.8,79.25c12.6,19.22,27.8,42.65,33.73,52.05
		c5.95,9.4,18.51,29.68,27.89,45.06c9.39,15.38,24.44,40.9,33.44,56.72c9.01,15.8,22.5,41.33,29.97,56.72
		c7.47,15.38,15.43,33.56,17.67,40.4c2.25,6.84,3.65,13.47,3.14,14.76c-0.81,1.94-3.12,2.14-14.09,1.17
		c-9.23-0.82-16.67-2.64-25.16-6.17c-6.62-2.75-16.24-7.8-21.37-11.23c-5.13-3.43-15.18-11.86-22.34-18.71
		c-7.16-6.84-18.02-18.4-24.13-25.65c-6.12-7.27-14.62-17.76-18.93-23.31c-4.29-5.56-18.21-24.78-30.94-42.73
		c-12.73-17.95-31.51-44.18-41.74-58.27c-10.22-14.11-24.55-32.99-31.82-41.95c-7.27-8.98-20.62-24.27-29.66-33.98
		c-9.03-9.73-24.82-25.37-35.07-34.78c-10.26-9.42-24.6-21.07-31.85-25.93c-7.27-4.85-16.7-10.04-20.98-11.55
		c-4.27-1.49-12.66-3.12-18.65-3.6c-9.28-0.76-12.12-0.34-19.3,2.81c-5.36,2.35-10.92,6.53-15.34,11.47
		c-3.79,4.27-8.84,11.61-11.2,16.32c-2.35,4.69-7.51,17.28-11.44,27.97c-3.95,10.68-14.93,42.14-24.43,69.92
		c-9.49,27.77-22.06,62.73-27.94,77.69c-5.87,14.96-15.54,36.98-21.46,48.95c-5.94,11.96-14.26,26.99-18.51,33.41
		c-4.24,6.4-11.47,15.45-16.07,20.08c-4.6,4.63-11.86,10.66-16.13,13.38c-4.27,2.73-12.83,7.52-19.03,10.63
		c-6.2,3.09-16.69,7.51-23.31,9.79c-11.23,3.87-14.26,4.18-45.45,4.82c-30.92,0.64-34.39,0.42-46.62-2.81
		c-7.27-1.91-14.11-4.26-15.21-5.21c-1.12-0.95-2-2.78-1.99-4.06c0.02-1.29,9.57-13.52,21.24-27.19s30.66-37.45,42.2-52.83
		c11.53-15.38,29.52-40.91,39.98-56.72c10.46-15.82,26.37-41.33,35.35-56.72c9-15.38,22.59-39.86,30.22-54.39
		c7.61-14.53,19.89-39,27.25-54.39c7.37-15.38,17.31-37.06,22.11-48.17c6.23-14.44,8.44-21.3,7.75-24.08
		c-0.53-2.14-7.65-21.37-15.8-42.73c-8.17-21.37-15.45-39.55-16.19-40.4c-0.87-1.01-5.55-0.06-13.38,2.72
		c-6.62,2.35-21.13,5.76-32.24,7.58c-11.11,1.8-25.79,5.3-32.63,7.74c-6.84,2.46-20.48,9.03-30.3,14.62
		c-9.84,5.59-18.23,10.12-18.65,10.04c-0.44-0.06-9.87-11.67-20.98-25.81c-11.11-14.12-22.66-29.09-25.64-33.25
		c-5.35-7.44-5.39-7.65-2.72-11.53c1.49-2.18,6.39-6.65,10.88-9.93s11.65-7.43,15.93-9.23c4.27-1.79,12.31-4.32,17.87-5.61
		c5.55-1.29,16.04-3.08,23.31-3.95c7.26-0.89,19.5-3.4,27.19-5.59c7.75-2.22,18.83-6.88,24.86-10.47
		c5.98-3.56,14.2-9.46,18.26-13.13c4.06-3.65,8.25-6.42,9.32-6.14s5.44,8.2,9.71,17.61c4.27,9.39,12.15,26.82,17.53,38.71
		c5.36,11.9,11,26.88,12.56,33.3c1.54,6.4,7.63,27.18,13.55,46.15c5.92,18.97,11.28,34,11.92,33.41
		c0.65-0.61,6.81-15.43,13.67-32.94c6.87-17.53,19.5-52.49,28.06-77.69c8.56-25.22,19.64-60.18,24.63-77.69
		c4.99-17.53,9.88-35.01,10.86-38.85C322.07,16.54,322.6,15.92,324.43,17.94z M328.35,374.74c4.69,0.37,11.17,1.37,14.37,2.19
		c3.2,0.84,7.51,3.08,9.56,5c2.53,2.36,4.52,7.02,6.14,14.37c2.32,10.54,2.27,11.25-1.26,22.53c-2.63,8.42-4.43,11.79-6.51,12.15
		c-1.63,0.28-4.4,3.65-6.4,7.77c-1.93,3.99-3.5,7.97-3.47,8.83s-1.35,3.12-3.08,5.05c-2.38,2.66-5.39,3.68-12.46,4.27
		c-5.13,0.42-9.32,1.48-9.32,2.33c0,0.85,1.77,10.81,3.95,22.14c2.16,11.33,4.79,22.55,5.83,24.92c1.03,2.38,2.41,4.3,3.05,4.27
		c0.64-0.03,10.43-2.5,21.75-5.5c11.33-2.98,23.56-5.44,27.19-5.44s9.11,1.23,12.17,2.72c3.54,1.72,5.89,4.13,6.42,6.6
		c0.61,2.72-0.02,4.49-2.07,5.89c-1.8,1.24-7.12,1.94-13.8,1.82c-9.74-0.19-11.92,0.36-20.98,5.33c-5.72,3.14-8.75,5.53-6.99,5.5
		c1.71-0.02,3.98,0.87,5.05,1.99c1.07,1.1,2.66,9,3.53,17.54c0.87,8.55,2.72,19.73,4.12,24.86c1.4,5.13,2.61,14.72,2.69,21.3
		c0.11,8.66-0.5,12.68-2.18,14.53c-1.58,1.74-3.7,2.25-6.6,1.62c-2.86-0.62-5.42-2.98-7.77-7.13c-2.22-3.93-4.63-6.23-6.6-6.26
		c-1.71-0.05-6.26,2.3-10.1,5.19c-3.85,2.89-9.79,6.7-13.21,8.44c-3.42,1.76-10.77,4.38-16.32,5.84
		c-6.54,1.71-13.92,2.42-20.98,2.04c-8.27-0.45-12.29-1.51-16.75-4.43c-3.22-2.11-8.27-7.33-11.22-11.61
		c-2.95-4.27-6.9-11.96-8.76-17.09c-2.73-7.51-3.39-12.65-3.34-26.42c0.03-13.35,0.9-20.32,4.01-31.85
		c2.19-8.13,5.5-18.96,7.37-24.08c2.92-8,5.61-11.47,19.16-24.54c8.67-8.36,18.74-17.45,22.39-20.2c3.64-2.73,6.09-5.47,5.44-6.06
		c-0.67-0.57-5.56-3.2-10.91-5.83c-5.52-2.7-10.85-6.6-12.35-9.03c-1.45-2.35-2.59-6.73-2.53-9.71c0.05-3,1.21-9.29,2.58-13.98
		c1.85-6.31,5.28-11.79,13.1-20.98c5.83-6.84,12.66-13.27,15.2-14.3c2.53-1.04,6.34-2.21,8.48-2.59
		C318.05,374.35,323.64,374.35,328.35,374.74z M515.98,465.67c6.85-0.16,9.71,0.36,9.7,1.72c0,1.07-4.24,16.97-9.42,35.35
		c-5.16,18.37-9.7,34.64-10.08,36.13c-0.59,2.38,0.57,2.72,9.42,2.72c5.55,0,10.44,0.7,10.88,1.55c0.42,0.85-0.45,5.52-1.94,10.35
		c-1.49,4.85-3.78,9.06-5.05,9.35c-1.29,0.31-3.47,2.81-4.85,5.58c-1.37,2.77-2.98,7.46-3.57,10.46c-0.81,4.07-0.45,6.03,1.46,7.77
		c2.35,2.16,2.33,3.67-2.81,38.07l-46.79,0.56c-25.72,0.31-48.34,0.14-50.27-0.39c-3.42-0.93-3.48-1.41-2.72-39.02l-20.2-1.55v-8.67
		c0-5.49,0.85-9.65,2.33-11.33c1.27-1.48,3.56-2.64,5.05-2.59c1.49,0.03,3.01-0.81,3.36-1.88c0.36-1.07,1.06-4.21,2.47-12.04
		l-14.76,0.78c-13.98,0.73-14.76,0.61-14.76-2.33c0-1.71,1.04-3.47,2.33-3.88c1.27-0.44,8.1-0.79,15.15-0.79
		c7.05-0.02,14.22-0.4,15.93-0.85c2.58-0.68,4.69-6.5,12.43-34.31c5.13-18.4,9.67-34.11,10.1-34.88c0.42-0.79,17.9-2.38,38.85-3.54
		C489.13,466.84,510.63,465.78,515.98,465.67z M498.5,562.93c3.42-0.33-0.08-0.59-7.77-0.59c-7.69,0.02-10.49,0.28-6.22,0.61
		C488.79,563.26,495.08,563.26,498.5,562.93z M490.73,586.24c3.42-0.34,1.32-0.62-4.66-0.62c-5.98-0.02-8.78,0.26-6.22,0.61
		C482.42,586.56,487.31,586.56,490.73,586.24z"/>
</g>
</svg>
